<?xml version="1.0" standalone="no"?>
<!DOCTYPE svg PUBLIC "-//W3C//DTD SVG 20010904//EN"
 "http://www.w3.org/TR/2001/REC-SVG-20010904/DTD/svg10.dtd">
<svg version="1.0" xmlns="http://www.w3.org/2000/svg"
 width="1080.000000pt" height="1080.000000pt" viewBox="0 0 1080.000000 1080.000000"
 preserveAspectRatio="xMidYMid meet">
<metadata>
Created by potrace 1.14, written by Peter Selinger 2001-2017
</metadata>
<g transform="translate(0.000000,1080.000000) scale(0.100000,-0.100000)"
fill="#000000" stroke="none">
<path d="M2698 10793 c1486 -2 3918 -2 5405 0 1486 1 270 2 -2703 2 -2973 0
-4189 -1 -2702 -2z"/>
<path d="M6210 7680 c-41 -5 -111 -12 -155 -16 -44 -4 -75 -9 -68 -11 7 -2 10
-10 7 -18 -4 -10 8 -15 43 -20 121 -16 123 -16 123 -36 0 -12 7 -19 20 -19 11
0 20 4 20 8 0 12 87 35 101 26 12 -7 56 -13 104 -14 11 -1 22 -6 26 -12 5 -8
12 -6 23 4 14 14 21 15 63 2 26 -8 49 -18 52 -22 5 -7 79 -32 95 -32 3 0 6 17
6 39 0 35 -3 39 -31 45 -17 3 -42 6 -55 6 -13 0 -24 4 -24 9 0 6 -21 13 -47
17 -27 3 -52 10 -58 14 -12 9 -97 30 -140 35 -16 2 -64 -1 -105 -5z"/>
<path d="M6320 7500 c0 -49 21 -92 34 -71 4 5 2 11 -3 13 -6 1 -11 25 -12 51
-4 65 -19 71 -19 7z"/>
<path d="M6397 7520 c3 -8 7 -27 10 -42 3 -15 16 -34 29 -43 28 -18 48 -20 38
-3 -4 7 -3 8 4 4 7 -4 13 -17 13 -29 1 -17 3 -15 8 8 5 20 3 34 -6 41 -7 6
-13 16 -13 23 0 6 -4 11 -10 11 -5 0 -10 10 -10 21 0 18 -4 21 -29 16 -16 -4
-31 -3 -34 1 -2 4 -2 0 0 -8z m63 -70 c0 -5 -4 -10 -10 -10 -5 0 -10 5 -10 10
0 6 5 10 10 10 6 0 10 -4 10 -10z"/>
<path d="M5938 7475 c-3 -14 -1 -25 3 -25 5 0 9 4 9 9 0 5 3 16 6 25 3 9 2 16
-4 16 -5 0 -12 -11 -14 -25z"/>
<path d="M5970 7460 c0 -5 5 -10 10 -10 6 0 10 5 10 10 0 6 -4 10 -10 10 -5 0
-10 -4 -10 -10z"/>
<path d="M6130 7455 c-10 -13 -9 -15 9 -15 12 0 21 6 21 15 0 8 -4 15 -9 15
-5 0 -14 -7 -21 -15z"/>
<path d="M5920 7409 c0 -5 5 -7 10 -4 6 3 10 8 10 11 0 2 -4 4 -10 4 -5 0 -10
-5 -10 -11z"/>
<path d="M3665 7330 c4 -6 -11 -10 -37 -10 -84 -1 -173 -10 -213 -21 -100 -28
-231 -121 -281 -200 -13 -21 -32 -40 -44 -44 -11 -4 -18 -10 -15 -15 3 -5 -3
-13 -12 -19 -14 -7 -15 -13 -7 -21 8 -8 14 -9 18 -1 13 20 28 12 20 -11 -6
-19 -5 -21 8 -11 8 7 18 10 21 6 4 -3 10 3 14 13 12 33 72 101 116 130 23 15
47 33 52 39 6 6 29 19 52 29 55 24 98 12 98 -27 0 -31 18 -40 23 -11 6 28 16
36 90 65 56 22 67 31 70 53 3 20 9 26 27 26 17 0 23 4 19 14 -4 9 3 16 18 19
17 3 15 5 -10 6 -20 0 -31 -3 -27 -9z"/>
<path d="M6560 7305 c0 -15 4 -24 10 -20 6 3 10 12 10 20 0 8 -4 17 -10 20 -6
4 -10 -5 -10 -20z"/>
<path d="M3855 7170 c3 -5 1 -10 -4 -10 -6 0 -11 -7 -11 -15 0 -10 10 -15 30
-15 17 0 30 5 30 10 0 19 17 10 28 -16 7 -14 16 -23 21 -20 17 11 -1 47 -30
61 -32 17 -73 20 -64 5z"/>
<path d="M3526 7105 c7 -18 14 -18 48 -5 17 6 26 6 26 0 0 -6 7 -10 15 -10 8
0 15 4 15 9 0 11 -35 21 -77 21 -25 0 -31 -4 -27 -15z"/>
<path d="M3380 7089 c0 -5 5 -7 10 -4 6 3 10 8 10 11 0 2 -4 4 -10 4 -5 0 -10
-5 -10 -11z"/>
<path d="M3840 7090 c0 -5 4 -10 9 -10 6 0 13 5 16 10 3 6 -1 10 -9 10 -9 0
-16 -4 -16 -10z"/>
<path d="M3425 7080 c-3 -5 -1 -10 4 -10 6 0 11 5 11 10 0 6 -2 10 -4 10 -3 0
-8 -4 -11 -10z"/>
<path d="M3340 7051 c0 -6 4 -13 10 -16 6 -3 7 1 4 9 -7 18 -14 21 -14 7z"/>
<path d="M3990 7041 c0 -25 6 -27 13 -6 4 8 2 17 -3 20 -6 4 -10 -3 -10 -14z"/>
<path d="M4015 6990 c3 -5 8 -10 11 -10 2 0 4 5 4 10 0 6 -5 10 -11 10 -5 0
-7 -4 -4 -10z"/>
</g>
</svg>
